<svg version="1.1" xmlns="http://www.w3.org/2000/svg" xmlns:xlink="http://www.w3.org/1999/xlink" width="570" height="500" viewBox="0 0 570 500">
  <g stroke-width="12.5" stroke="#FFF" transform="translate(0 30)">
    <polygon fill="#60B5CC" points="200,0 200,200 0,200" transform="translate(262 100)"></polygon>
    <polygon fill="#5A6378" points="0,0 200,200 0,200" transform="translate(120 300) rotate(-45)"></polygon>
    <polygon fill="#7FD13B" points="0,0 100,0 200,100 100,100" transform="translate(120 299) rotate(-45)"></polygon>
    <polygon fill="#F0AD00" points="0,0 100,0 0,100" transform="translate(120 300) rotate(45)"></polygon>
    <polygon fill="#60B5CC" points="0,0 200,0 100,100" transform="translate(149 270) rotate(135)"></polygon>
    <rect fill="#7FD13B" x="0" y="0" width="100" height="100" transform="translate(495 5) rotate(45)"></rect>
    <polygon fill="#F0AD00" points="0,0, 100,0 0,100" transform="translate(395 300)"></polygon>
  </g>
</svg>